/vscmnt/brussel_pixiu_data/_data_brussel/112/vsc11236/PredSimResults/SUBJ09mtu3D/worker6.mot
version=1
nRows=11
nColumns=50
inDegrees=yes
endheader
                time	         pelvis_tilt	         pelvis_list	     pelvis_rotation	           pelvis_tx	           pelvis_ty	           pelvis_tz	       hip_flexion_r	     hip_adduction_r	      hip_rotation_r	        knee_angle_r	       ankle_angle_r	         mtp_angle_r	       hip_flexion_l	     hip_adduction_l	      hip_rotation_l	        knee_angle_l	       ankle_angle_l	         mtp_angle_l	    lumbar_extension	      lumbar_bending	     lumbar_rotation	 ercspn_r/activation	 intobl_r/activation	 extobl_r/activation	    abd_r/activation	    add_r/activation	hamstrings_r/activation	bifemsh_r/activation	glut_max_r/activation	iliopsoas_r/activation	rect_fem_r/activation	  vasti_r/activation	gastroc_r/activation	 soleus_r/activation	tib_ant_r/activation	 ercspn_l/activation	 intobl_l/activation	 extobl_l/activation	    abd_l/activation	    add_l/activation	hamstrings_l/activation	bifemsh_l/activation	glut_max_l/activation	iliopsoas_l/activation	rect_fem_l/activation	  vasti_l/activation	gastroc_l/activation	 soleus_l/activation	tib_ant_l/activation	
          0.00000000	         -4.44768145	         -1.13604838	          8.36996754	          0.00000000	          0.98789001	         -0.00355129	         28.88846268	         -1.01009852	         -6.92654119	         -5.44101229	          4.45742239	          0.25080481	        -11.44904668	         -2.01310960	         -1.11539718	        -13.08964709	          8.38873260	         32.48837607	        -13.58339520	         -1.06680947	         -3.11211137	          0.00999999	          0.15412600	          0.05280554	          0.06053950	          0.14264895	          0.04599359	          0.16822344	          0.09378108	          0.08093573	          0.02121535	          0.00999999	          0.01741384	          0.01447422	          0.32087055	          0.01000000	          0.01062994	          0.02097635	          0.02833160	          0.01594264	          0.06905600	          0.17518145	          0.02212824	          0.01000000	          0.00999999	          0.00999999	          0.15317064	          0.26305523	          0.00999999	
          0.01218534	         -4.43707971	         -1.17205696	          8.17164942	          0.01971058	          0.98589654	         -0.00345511	         28.53623128	         -0.78879342	         -6.68656915	         -6.81040433	          4.05313396	          0.21319345	        -12.21007247	         -2.16078430	         -1.72542195	        -13.77003967	          7.26645294	         34.17045950	        -13.08131335	         -0.63461933	         -3.06787313	          0.00999999	          0.12810857	          0.04389163	          0.12679856	          0.12813933	          0.05292485	          0.13982626	          0.13245789	          0.06727327	          0.01763406	          0.00999999	          0.01447428	          0.01203088	          0.35983549	          0.00999999	          0.00999999	          0.01743541	          0.02354904	          0.01325142	          0.05959354	          0.16070079	          0.01839285	          0.00999999	          0.00999999	          0.00999999	          0.12731447	          0.23549104	          0.00999999	
          0.02437068	         -4.41824923	         -1.21563860	          7.93256379	          0.03952316	          0.98424767	         -0.00331162	         28.16400921	         -0.56166571	         -6.45659473	         -8.14222351	          3.47724167	          0.20846611	        -12.74860661	         -2.31441194	         -2.36436095	        -14.85109355	          5.98940244	         35.83085282	        -12.57312345	         -0.18281754	         -3.00442687	          0.00999999	          0.10648303	          0.03648244	          0.17347985	          0.12659966	          0.05221696	          0.11622271	          0.17337497	          0.05591712	          0.01465732	          0.00999999	          0.01203093	          0.00999999	          0.40143384	          0.01587032	          0.00999999	          0.01449220	          0.01957382	          0.01101450	          0.05122429	          0.13357349	          0.01528802	          0.01000000	          0.00999999	          0.00999999	          0.10582299	          0.19573866	          0.00999999	
          0.03655602	         -4.39372161	         -1.25980751	          7.65488271	          0.05910417	          0.98317754	         -0.00311592	         27.91185436	         -0.33822265	         -6.23761916	         -9.66720246	          2.91591004	          0.17249686	        -12.96342973	         -2.47267208	         -3.02112508	        -16.46454081	          4.55277280	         37.35537808	        -12.09752577	          0.28217565	         -2.92041348	          0.01000000	          0.08850802	          0.03032398	          0.21311253	          0.16455643	          0.04672168	          0.09660358	          0.20078202	          0.04647796	          0.01218308	          0.03600286	          0.01000003	          0.00999999	          0.42078588	          0.05100601	          0.00999999	          0.01204583	          0.01626963	          0.04818572	          0.04257731	          0.11102544	          0.01270731	          0.05207631	          0.00999999	          0.00999999	          0.08795940	          0.16269674	          0.00999999	
          0.04874137	         -4.36479210	         -1.29251229	          7.33979826	          0.07827519	          0.98283574	         -0.00288224	         27.76661377	         -0.13139119	         -6.03268554	        -11.40602297	          2.67727448	          0.13389330	        -12.77225929	         -2.63167249	         -3.69335777	        -18.72863837	          2.97817533	         38.53644931	        -11.67383644	          0.74714265	         -2.81545937	          0.01000000	          0.07356731	          0.02520510	          0.23837556	          0.18529781	          0.04511731	          0.08029629	          0.21489548	          0.03863218	          0.01012651	          0.08934685	          0.00999999	          0.00999999	          0.41866554	          0.07491854	          0.00999999	          0.01001242	          0.01352322	          0.09672921	          0.03539004	          0.09228365	          0.01056223	          0.05800960	          0.00999999	          0.00999999	          0.07311130	          0.13523250	          0.00999999	
          0.06092671	         -4.33381293	         -1.29968043	          6.98547518	          0.09694528	          0.98333718	         -0.00264033	         27.59842738	          0.05711667	         -5.82458076	        -13.10589867	          2.71706318	          0.10178235	        -12.12284484	         -2.78947485	         -4.39605661	        -21.72013080	          1.35402813	         38.95885714	        -11.30982008	          1.19745445	         -2.68637384	          0.01000002	          0.06114868	          0.02095032	          0.24514773	          0.19987813	          0.04796423	          0.06674177	          0.20525864	          0.03211083	          0.01000002	          0.12119652	          0.01000001	          0.01000002	          0.39545429	          0.07276471	          0.00999999	          0.00999999	          0.01124041	          0.13192332	          0.02941599	          0.07670559	          0.00999999	          0.04821721	          0.00999999	          0.00999999	          0.06076965	          0.11240440	          0.00999999	
          0.07311205	         -4.30135837	         -1.26989269	          6.58955217	          0.11510933	          0.98465443	         -0.00242068	         27.30920556	          0.22627663	         -5.58551281	        -14.58048038	          2.96093216	          0.08400085	        -11.01067465	         -2.94962319	         -5.11047822	        -25.42997211	         -0.31893937	         38.37405582	        -11.00411351	          1.62199937	         -2.52916806	          0.00999999	          0.05082640	          0.01741377	          0.23880927	          0.21079947	          0.05139776	          0.05547534	          0.18436101	          0.02669032	          0.01000000	          0.14173012	          0.00999999	          0.00999999	          0.36379779	          0.06048157	          0.00999999	          0.02596140	          0.00999999	          0.16531061	          0.03308848	          0.06375720	          0.00999999	          0.04007784	          0.00999999	          0.00999999	          0.05051135	          0.09342983	          0.02828341	
          0.08529739	         -4.26770135	         -1.19996536	          6.15445047	          0.13277145	          0.98663211	         -0.00224145	         26.85313045	          0.37551205	         -5.29523145	        -15.73009253	          3.31290544	          0.08223478	         -9.47365719	         -3.11829575	         -5.79828716	        -29.76348536	         -1.99868435	         36.54174269	        -10.75432891	          2.01602601	         -2.34430896	          0.01000000	          0.04224658	          0.01447422	          0.22170389	          0.17521519	          0.05148503	          0.04611075	          0.15323971	          0.02218482	          0.01000001	          0.16980548	          0.01000000	          0.00999999	          0.32719276	          0.06875406	          0.06006329	          0.06833763	          0.00999999	          0.13740514	          0.02750294	          0.05299458	          0.00999999	          0.03331245	          0.00999999	          0.00999999	          0.04198471	          0.07765828	          0.08195892	
          0.09748273	         -4.23293229	         -1.09106065	          5.69042094	          0.14987448	          0.98907795	         -0.00207863	         26.23611260	          0.50279723	         -4.94182391	        -16.55087320	          3.73719875	          0.11932091	         -7.58697255	         -3.29575891	         -6.41649663	        -34.57400802	         -3.43895288	         33.15945138	        -10.56889808	          2.36807308	         -2.13498174	          0.00999999	          0.03511509	          0.01203088	          0.19649038	          0.14563776	          0.04824104	          0.03832696	          0.12737188	          0.01843988	          0.01000001	          0.19139068	          0.00999999	          0.00999999	          0.29260591	          0.09313453	          0.10145387	          0.12974728	          0.01247506	          0.11421028	          0.02286027	          0.04404876	          0.00999999	          0.02768910	          0.01000001	          0.00999999	          0.03489743	          0.06454908	          0.18981317	
          0.10966807	         -4.19787474	         -0.95947470	          5.19883411	          0.16636029	          0.99179530	         -0.00191839	         25.49431994	          0.61687825	         -4.54047664	        -17.08813347	          4.19073398	          0.21503737	         -5.46832838	         -3.43348907	         -6.85842431	        -39.62808265	         -4.23955438	         28.57647625	        -10.45474952	          2.68428307	         -1.89741387	          0.00999999	          0.02918744	          0.00999999	          0.17033674	          0.12105319	          0.04528389	          0.03185713	          0.10587070	          0.01532712	          0.01000001	          0.19387456	          0.00999999	          0.00999999	          0.25819985	          0.08876559	          0.10809267	          0.16460574	          0.01203089	          0.09493087	          0.01900131	          0.03661306	          0.01000000	          0.02301501	          0.01000000	          0.00999999	          0.03200254	          0.05365278	          0.20151783	
          0.12185342	         -4.16333646	         -0.82144677	          4.67846473	          0.18223737	          0.99467217	         -0.00177930	         24.67868768	          0.72453533	         -4.10470421	        -17.42650088	          4.65370013	          0.36801593	         -3.23376355	         -3.47410076	         -7.09779986	        -44.63573020	         -4.07022436	         24.44902185	        -10.41069987	          2.97970277	         -1.63097384	          0.00999999	          0.02426042	          0.00999999	          0.15055840	          0.10061865	          0.05032702	          0.02647945	          0.09185035	          0.01273980	          0.01000001	          0.18475472	          0.00999999	          0.00999999	          0.22699836	          0.07378140	          0.11044608	          0.17542204	          0.01000000	          0.07890594	          0.01579377	          0.04348504	          0.00999999	          0.02132080	          0.03740154	          0.00999999	          0.03032613	          0.04459585	          0.20772853	
